<svg width="124" height="124" viewBox="0 0 124 124" fill="none" xmlns="http://www.w3.org/2000/svg">
    <path
        d="M27.984 42.4688H11.3464C7.44084 42.4688 4.31641 45.6713 4.31641 49.4987V100.036C4.31641 103.942 7.51895 107.066 11.3464 107.066H27.984C31.8895 107.066 35.0139 103.864 35.0139 100.036V49.4987C35.0921 45.5932 31.8895 42.4688 27.984 42.4688Z"
        fill="url(#paint0_linear_36_59)" />
    <path
        d="M70.398 16.9297H53.7604C49.8549 16.9297 46.7305 20.1322 46.7305 23.9597V100.04C46.7305 103.945 49.933 107.07 53.7604 107.07H70.398C74.3036 107.07 77.428 103.867 77.428 100.04V23.9597C77.428 20.1322 74.3036 16.9297 70.398 16.9297Z"
        fill="url(#paint1_linear_36_59)" />
    <path
        d="M112.656 52.1562H96.0183C92.1127 52.1562 88.9883 55.3588 88.9883 59.1862V100.038C88.9883 103.944 92.1908 107.068 96.0183 107.068H112.656C116.561 107.068 119.686 103.866 119.686 100.038V59.1862C119.686 55.2807 116.561 52.1562 112.656 52.1562Z"
        fill="url(#paint2_linear_36_59)" />
    <defs>
        <linearGradient id="paint0_linear_36_59" x1="4.31641" y1="74.7936" x2="35.0729" y2="74.7936"
            gradientUnits="userSpaceOnUse">
            <stop stop-color="#FFF" /> <!-- #F6C43D-->
            <stop offset="1" stop-color="#FFF" /> <!-- #FCD975-->
        </linearGradient>
        <linearGradient id="paint1_linear_36_59" x1="46.6934" y1="62.0356" x2="77.45" y2="62.0356"
            gradientUnits="userSpaceOnUse">
            <stop stop-color="#FFF" /> <!-- #1480C4-->
            <stop offset="1" stop-color="#FFF" /> <!-- #1C99D4-->
        </linearGradient>
        <linearGradient id="paint2_linear_36_59" x1="88.9635" y1="79.6377" x2="119.72" y2="79.6377"
            gradientUnits="userSpaceOnUse">
            <stop stop-color="#FFF" /> <!-- #B11E26-->
            <stop offset="1" stop-color="#FFF" /> <!-- #C21C24-->
        </linearGradient>
    </defs>
</svg>
