<svg width="124" height="124" viewBox="0 0 124 124" fill="none" xmlns="http://www.w3.org/2000/svg">
    <path
        d="M82.5068 89.605C85.0005 87.115 89.0371 87.1215 91.5228 89.6195C94.0085 92.1176 94.002 96.1612 91.5083 98.6513L80.4351 109.708C70.2192 119.909 53.5605 120.057 43.1723 110.052C43.1122 109.994 38.4866 105.459 23.227 90.4956C13.0752 80.5415 12.0638 64.6135 21.617 54.385L39.4287 35.3131C48.91 25.1605 66.3874 24.0508 77.228 32.8175L93.4053 45.9006C96.1449 48.1162 96.5728 52.1371 94.3611 54.8815C92.1493 57.6259 88.1354 58.0545 85.3958 55.8389L69.2187 42.7559C63.5493 38.1711 53.6319 38.8008 48.7398 44.0392L30.9279 63.1113C26.2772 68.0908 26.7866 76.1126 32.1461 81.3678C43.3515 92.3555 51.9874 100.823 51.9974 100.833C57.3981 106.035 66.1309 105.957 71.4336 100.662L82.5068 89.605Z"
        fill="#000" /> <!-- #FFA116 -->
    <path fill-rule="evenodd" clip-rule="evenodd"
        d="M55.6077 78.5385C52.0867 78.5385 49.2324 75.6792 49.2324 72.152C49.2324 68.6249 52.0867 65.7656 55.6077 65.7656H102.625C106.146 65.7656 109.001 68.6249 109.001 72.152C109.001 75.6792 106.146 78.5385 102.625 78.5385H55.6077Z"
        fill="#000" /> <!-- #B3B3B3 -->
    <path fill-rule="evenodd" clip-rule="evenodd"
        d="M64.4123 8.56241C66.8178 5.98674 70.8521 5.85217 73.4233 8.26183C75.9945 10.6715 76.1288 14.7129 73.7234 17.2886L30.9281 63.1119C26.2772 68.091 26.7866 76.1128 32.1458 81.3682L51.9093 100.748C54.4254 103.215 54.4685 107.259 52.0055 109.779C49.5425 112.3 45.5061 112.343 42.99 109.876L23.2264 90.4958C13.0752 80.5412 12.0638 64.6132 21.6174 54.3854L64.4123 8.56241Z"
        fill="#000" /> <!-- #black -->
</svg>
